<?xml version="1.0" standalone="no"?>
<!DOCTYPE svg PUBLIC "-//W3C//DTD SVG 20010904//EN"
 "http://www.w3.org/TR/2001/REC-SVG-20010904/DTD/svg10.dtd">
<svg version="1.0" xmlns="http://www.w3.org/2000/svg"
 width="272.000000pt" height="272.000000pt" viewBox="0 0 272.000000 272.000000"
 preserveAspectRatio="xMidYMid meet">
<metadata>
Created by potrace 1.14, written by Peter Selinger 2001-2017
</metadata>
<g transform="translate(0.000000,272.000000) scale(0.100000,-0.100000)"
fill="#000000" stroke="none">
<path d="M520 2543 c-13 -3 -269 -508 -278 -548 -2 -7 5 -14 15 -17 10 -2 452
-3 982 -3 l963 1 13 31 c7 17 11 34 8 37 -4 3 -1 6 5 6 7 0 12 5 12 11 0 7 38
108 85 225 47 117 85 218 85 224 0 5 5 10 11 10 8 0 8 4 0 14 -11 13 -148 15
-949 14 -515 -1 -944 -3 -952 -5z"/>
<path d="M744 1632 c-13 -8 -184 -352 -184 -370 0 -7 -3 -12 -7 -12 -5 0 -17
-21 -27 -48 -11 -26 -22 -49 -26 -52 -12 -9 -29 -69 -21 -74 14 -9 1948 -4
1962 5 8 5 11 9 7 9 -4 0 11 44 34 98 22 53 41 102 42 107 1 6 10 27 19 49 9
21 17 42 17 45 0 4 9 26 20 49 11 22 20 45 20 50 0 5 11 35 25 66 14 31 25 63
25 71 0 13 -126 15 -947 15 -522 0 -953 -4 -959 -8z"/>
<path d="M358 728 c-7 -13 -11 -26 -10 -30 1 -5 -2 -8 -7 -8 -5 0 -17 -21 -27
-47 -10 -27 -20 -50 -23 -53 -12 -11 -31 -50 -31 -65 0 -8 -4 -15 -10 -15 -5
0 -10 -5 -10 -11 0 -15 -63 -143 -72 -147 -5 -2 -8 -9 -8 -15 0 -7 -16 -43
-34 -82 -19 -38 -31 -72 -26 -75 4 -3 448 -5 985 -5 l977 0 31 85 c17 47 35
88 41 92 6 4 7 10 4 14 -4 4 -1 16 7 28 8 11 15 26 15 33 0 7 11 37 25 68 14
30 28 68 31 85 4 16 10 30 14 30 3 0 7 6 7 14 0 8 7 29 15 47 9 19 18 43 20
54 3 20 -3 20 -949 23 l-952 2 -13 -22z"/>
</g>
</svg>
